<?xml version="1.0" standalone="no"?><!DOCTYPE svg PUBLIC "-//W3C//DTD SVG 1.1//EN" "http://www.w3.org/Graphics/SVG/1.1/DTD/svg11.dtd"><svg t="1748159553592" class="icon" viewBox="0 0 1024 1024" version="1.1" xmlns="http://www.w3.org/2000/svg" p-id="18119" data-darkreader-inline-fill="" xmlns:xlink="http://www.w3.org/1999/xlink" width="200" height="200"><path d="M511.150926 1.703827c-281.131448 0-511.148087 230.016639-511.148086 511.148086s230.016639 511.148087 511.148086 511.148087 511.148087-230.016639 511.148087-511.148087-228.312812-511.148087-511.148087-511.148086z m0 954.143095c-243.647255 0-442.995008-199.347754-442.995008-442.995009s199.347754-442.995008 442.995008-442.995008 442.995008 199.347754 442.995009 442.995008-197.643927 442.995008-442.995009 442.995009z" fill="#73c9e5" p-id="18120" data-darkreader-inline-fill="" style="--darkreader-inline-fill: var(--darkreader-background-73c9e5, #2b6273);"></path><path d="M545.227465 388.472546v-66.449251h149.936772c18.742097 0 34.076539-15.334443 34.076539-34.07654s-15.334443-34.076539-34.076539-34.076539H327.137615c-18.742097 0-34.076539 15.334443-34.076539 34.076539s15.334443 34.076539 34.076539 34.07654h149.936772v66.449251c-115.860233 17.03827-204.459235 115.860233-204.459234 236.831947V664.492512c0 18.742097 15.334443 34.076539 34.076539 34.07654s34.076539-15.334443 34.076539-34.07654v-39.188019c0-81.783694 57.930116-151.640599 136.306156-166.975042v347.580699c0 18.742097 15.334443 34.076539 34.076539 34.076539s34.076539-15.334443 34.076539-34.076539V456.625624c78.37604 15.334443 136.306156 85.191348 136.306157 166.975042v39.18802c0 18.742097 15.334443 34.076539 34.076539 34.076539s34.076539-15.334443 34.076539-34.076539v-39.18802c0-119.267887-88.599002-218.08985-204.459235-235.12812z" fill="#73c9e5" p-id="18121" data-darkreader-inline-fill="" style="--darkreader-inline-fill: var(--darkreader-background-73c9e5, #2b6273);"></path></svg>