<?xml version="1.0" standalone="no"?><!DOCTYPE svg PUBLIC "-//W3C//DTD SVG 1.1//EN" "http://www.w3.org/Graphics/SVG/1.1/DTD/svg11.dtd"><svg t="1640919740228" class="icon" viewBox="0 0 1280 1024" version="1.1" xmlns="http://www.w3.org/2000/svg" p-id="2815" data-darkreader-inline-fill="" xmlns:xlink="http://www.w3.org/1999/xlink" width="250" height="200"><defs><style type="text/css"></style></defs><path d="M282.3 297.9v411.8c0 74.9 60.7 135.6 135.6 135.6h411.8c74.9 0 135.6-60.7 135.6-135.6V297.9c0-74.9-60.7-135.6-135.6-135.6H417.9c-74.9 0-135.6 60.7-135.6 135.6z m547.3 479.4H417.9c-37.3 0-67.6-30.3-67.6-67.6V297.9c0-37.3 30.3-67.6 67.6-67.6h411.8c37.3 0 67.6 30.3 67.6 67.6v411.8c0 37.3-30.3 67.6-67.7 67.6z" p-id="2816"></path><path d="M755 469.8h-97.3v-97.3c0-18.8-15.2-34-34-34s-34 15.2-34 34v97.3h-97.3c-18.8 0-34 15.2-34 34s15.2 34 34 34h97.3V635c0 18.8 15.2 34 34 34s34-15.2 34-34v-97.3H755c18.8 0 34-15.2 34-34 0-18.7-15.2-33.9-34-33.9z" fill="#00F1A3" p-id="2817" data-darkreader-inline-fill="" style="--darkreader-inline-fill:#2cb387;"></path></svg>