<?xml version="1.0" standalone="no"?><!DOCTYPE svg PUBLIC "-//W3C//DTD SVG 1.1//EN" "http://www.w3.org/Graphics/SVG/1.1/DTD/svg11.dtd"><svg t="1748159203169" class="icon" viewBox="0 0 1024 1024" version="1.1" xmlns="http://www.w3.org/2000/svg" p-id="1497" data-darkreader-inline-fill="" xmlns:xlink="http://www.w3.org/1999/xlink" width="200" height="200"><path d="M779.2 881.6h-44.8c-17.6 0-32-14.4-32-32s14.4-32 32-32h44.8c4.8 0 51.2-1.6 62.4-28.8 14.4-36.8 72-264 92.8-347.2 3.2-12.8 11.2-49.6 0-62.4-4.8-4.8-14.4-6.4-20.8-6.4H649.6c-17.6 0-32-14.4-32-32s14.4-32 32-32H912c38.4 0 60.8 16 70.4 30.4 30.4 36.8 17.6 91.2 12.8 116.8v1.6c-8 32-76.8 307.2-94.4 355.2-19.2 51.2-76.8 68.8-121.6 68.8z" fill="#43484D" p-id="1498" data-darkreader-inline-fill="" style="--darkreader-inline-fill: var(--darkreader-background-43484d, #424648);"></path><path d="M331.2 480c-12.8 0-24-8-30.4-20.8-6.4-16 1.6-35.2 17.6-41.6 24-9.6 44.8-27.2 57.6-49.6l8-14.4c35.2-62.4 57.6-134.4 67.2-214.4 1.6-11.2 4.8-20.8 6.4-27.2 9.6-27.2 46.4-56 92.8-59.2 30.4-1.6 86.4 8 126.4 92.8 64 136 0 212.8-3.2 216-11.2 12.8-32 14.4-44.8 3.2-12.8-11.2-14.4-32-3.2-44.8 1.6-1.6 38.4-51.2-6.4-147.2-11.2-24-32-54.4-60.8-56-20.8-1.6-36.8 11.2-40 17.6 0 0-1.6 4.8-1.6 14.4-9.6 88-35.2 168-75.2 238.4l-8 12.8c-19.2 35.2-51.2 64-89.6 78.4-4.8 1.6-8 1.6-12.8 1.6zM777.6 881.6H500.8c-20.8 0-40-3.2-59.2-11.2-52.8-19.2-128-48-128-48l22.4-59.2 128 48c11.2 4.8 24 6.4 36.8 6.4h276.8c17.6 0 32 14.4 32 32s-14.4 32-32 32z" fill="#43484D" p-id="1499" data-darkreader-inline-fill="" style="--darkreader-inline-fill: var(--darkreader-background-43484d, #424648);"></path><path d="M294.4 902.4H97.6c-30.4 0-54.4-25.6-54.4-56V393.6c0-27.2 20.8-65.6 54.4-65.6h196.8c20.8 0 46.4 17.6 46.4 65.6v452.8c0 41.6-24 56-46.4 56z m-187.2-64h169.6V393.6v-1.6H107.2V838.4z" fill="#229BFF" p-id="1500" data-darkreader-inline-fill="" style="--darkreader-inline-fill: var(--darkreader-background-229bff, #195f9a);"></path></svg>