<svg t="1643166878813" class="icon" viewBox="0 0 1024 1024" version="1.1" xmlns="http://www.w3.org/2000/svg" p-id="5345" data-darkreader-inline-fill="" width="128" height="128"><path d="M718.626 90.06c7.735-8.362 21.19-12.063 34.84-9.657 14.606 2.575 26.566 11.636 30.235 23.13 26.954 7.831 51.1 18.275 70.827 30.972a261.293 261.293 0 0 1 18.643 13.19l4.678-1.017c43.286-9.352 76.302-14.727 99.202-16.118l1.873-0.105c12.273-0.644 21.716-0.11 28.578 1.75 9.372 2.54 15.429 8.156 15.429 16.77 0 3.241-0.682 6.069-1.97 9.305l-0.255 0.626c-0.132 0.319-0.274 0.654-0.435 1.025l-0.854 1.978c-1.213 2.87-1.63 4.494-1.63 6.656 0 1.498 0.268 2.999 0.975 5.5l0.285 0.988 0.564 1.902c2.347 8.016 2.895 12.807 1.181 19.744-2.036 8.236-6.128 13.882-12.633 19.314l-0.581 0.478c-0.81 0.661-2.929 2.306-4.067 3.194l-1.022 0.811-0.6 0.502c-0.834 0.717-1.39 1.273-1.763 1.753l-0.6 0.782c-2.264 2.985-2.908 4.301-3.532 6.427l-0.43 1.458c-0.635 2.096-1.143 3.43-2.125 5.417-3.23 6.548-11.044 10.432-19.267 9.965-8.653-0.49-16.86-5.52-23.142-14.6l-1.302-1.92a150.2 150.2 0 0 0-21.033-24.509l1.413 2.002c46.43 66.264 69.26 156.933 63.465 264.47-8.631 160.178-104.735 312.17-233.71 373.859l-0.257 1.211-0.268 1.31a287.817 287.817 0 0 0-0.456 2.327l-1.662 8.783-0.431 2.212a298.123 298.123 0 0 1-1.457 6.982l-0.387 1.709c-2.282 9.937-4.994 18.75-8.608 27.203-13.459 31.472-37.83 53.511-77.56 63.643l-7.182 1.831-3.008-6.773c-8.74-19.684-10.257-37.534-5.15-55.917 3.44-12.386 9.461-24.432 19.877-40.492l1.325-2.03c-27.75-9.366-46.811-25.377-63.85-49.451l-0.663-0.94c-2.122-3.032-4.155-6.086-6.576-9.841l-1.614-2.516-4.428-6.968-2.089-3.255-8.203-12.557 13.36-2.142c52.49-8.417 78.555-4.441 110.433 14.83 1.02 0.614 3.333 0.718 6.928-0.279 4.593-1.27 10.245-4.11 16.425-8.354 13.648-9.373 28.366-24.452 40.96-42.514 30.981-44.431 44.135-97.517 30.993-148.23-8.072-31.151-21.738-54.42-41.596-73.523l-1.064-1.015c-14.716-13.95-29.525-23.644-59.915-40.7l-7.717-4.315-6.67-3.752-3.693-2.1c-6.808-3.892-12.68-7.368-18.034-10.71a148.666 148.666 0 0 0 10.363 7.817l2.12 1.44c9.081 6.281 14.11 14.49 14.602 23.142 0.465 8.223-3.419 16.037-9.967 19.267-1.99 0.98-3.32 1.49-5.417 2.124l-1.974 0.588c-1.84 0.586-3.175 1.3-5.91 3.375l-0.782 0.6c-0.585 0.453-1.29 1.185-2.255 2.362l-0.812 1.024c-0.888 1.137-2.532 3.255-3.194 4.066l-0.478 0.58c-5.431 6.506-11.078 10.597-19.314 12.634-6.937 1.714-11.728 1.166-19.744-1.18l-2.89-0.85-0.95-0.261c-1.952-0.512-3.252-0.714-4.55-0.714-2.162 0-3.786 0.417-6.656 1.63l-1.977 0.854-1.026 0.434-0.626 0.255c-3.236 1.287-6.064 1.97-9.305 1.97-8.635 0-14.253-6.08-16.787-15.491-1.802-6.696-2.35-15.841-1.777-27.664l0.114-2.114 0.1-1.633c1.52-23.357 7.078-56.98 16.672-101.019l0.683-3.126c-11.182-17.738-20.78-37.683-28.599-59.074-11.852-2.562-22.029-13.73-25.892-28.153-3.881-14.48-0.61-29.298 8.449-37.421-9.251-53.4-6.12-102.806 9.117-129.535 17.745-31.133 82.534-43.691 157.012-35.461l2.26 0.254 0.39-0.428z m175.892 71.031c29.673 14.95 53.026 34.827 69.925 59.606l1.092 1.615c3.3 4.742 6.665 6.795 9.63 6.963 0.98 0.056 1.84-0.117 2.458-0.424l0.177-0.098 0.072-0.044c0.35-0.74 0.563-1.305 0.863-2.29l0.564-1.901c1.288-4.187 3.021-7.453 6.958-12.527 1.372-1.77 2.928-3.28 4.988-4.976l0.862-0.695c0.958-0.755 3.337-2.597 4.229-3.313l0.603-0.495c3.85-3.218 5.801-5.938 6.81-10.025 0.764-3.086 0.557-5.26-0.86-10.17l-0.898-3.045c-1.207-4.199-1.758-7.14-1.758-10.708 0-4.919 0.94-8.554 2.964-13.37l0.329-0.77 0.851-1.972 0.395-0.978c0.23-0.6 0.383-1.08 0.479-1.492-0.586-0.286-1.368-0.57-2.341-0.833-4.871-1.321-12.976-1.744-24.044-1.112l-0.844 0.051-1.748 0.114c-18.58 1.279-44.307 5.255-77.097 11.933l-4.659 0.956z m-25.724 5.546l-3.28-2.627a244.044 244.044 0 0 0-20.487-14.744c-19.393-12.483-43.795-22.767-71.266-30.298l-6.269-1.719-0.185-6.495c-0.147-5.178-6.997-11.32-16.888-13.063-9.31-1.641-17.517 1.308-19.995 5.778l-3.06 5.858-6.064-0.779c-71.03-9.11-133.572 2.133-147.086 25.842-13.283 23.3-15.874 71.4-6.094 123.237l1.265 6.701-6.18 2.882c-4.708 2.194-7.488 11.065-4.851 20.898 2.624 9.8 9.435 16.092 14.605 15.678l6.763-0.542 2.227 6.408c8.146 23.423 18.473 45.053 30.653 63.776l2.01 3.088-0.025 0.114 4.212 5.841a214.712 214.712 0 0 0 3.901 5.245c17.976 23.398 37.802 38.297 75.106 59.474l3.666 2.07 14.207 7.963 4.59 2.604c26.455 15.106 40.82 24.89 55.486 38.801l1.133 1.083c22.192 21.346 37.53 47.465 46.42 81.767 14.548 56.135 0.127 114.327-33.587 162.677-29.025 41.627-67.77 68.232-87.792 56.127l-1.503-0.898c-24.185-14.307-44.146-18.38-81.396-13.853l-2.35 0.292 1.1 1.72 1.575 2.438a270.131 270.131 0 0 0 5.155 7.665l0.583 0.83c17.116 24.195 35.764 38.57 65.683 46.067l12.298 3.082-7.212 10.426c-14.508 20.971-21.925 34.358-25.512 47.27-3.4 12.239-3.068 23.962 1.485 37.05 29.801-9.381 47.83-26.805 58.36-51.434 3.162-7.392 5.577-15.239 7.642-24.23l0.335-1.484a308.041 308.041 0 0 0 1.827-8.894l1.895-9.984 0.53-2.628 0.321-1.506c0.316-1.451 0.625-2.75 0.94-3.96l1.233-4.55 3.718-1.717c124.833-57.669 219.03-205.23 227.409-360.685 7.197-133.565-31.011-238.88-103.562-301.49l-3.679-3.173-0.01 0.001zM609.002 402.52l-0.322 1.558c-7.147 34.69-11.352 61.688-12.617 80.896l-0.105 1.701-0.095 1.779c-0.504 10.23-0.065 17.778 1.185 22.418 0.228 0.846 0.47 1.548 0.72 2.107l0.122 0.266 0.214-0.051c0.363-0.095 0.78-0.234 1.281-0.425l0.976-0.395 2.743-1.181c4.816-2.025 8.45-2.964 13.37-2.964 3.57 0 6.51 0.551 10.707 1.758l3.046 0.898c4.91 1.418 7.081 1.624 10.17 0.86 4.087-1.009 6.806-2.96 10.024-6.812l0.662-0.81c0.804-1.01 2.444-3.13 3.146-4.02l0.695-0.864c1.697-2.058 3.207-3.613 4.977-4.988 5.074-3.935 8.34-5.67 12.526-6.956l0.487-0.146 1.108-0.325 0.658-0.202c0.6-0.19 1.042-0.354 1.51-0.56l0.428-0.194 0.044-0.072 0.097-0.179c0.307-0.617 0.481-1.476 0.424-2.456-0.167-2.965-2.22-6.331-6.962-9.63l-1.613-1.094c-24.778-16.896-44.654-40.248-59.606-69.917z" fill="#91000A" p-id="5346" data-darkreader-inline-fill="" style="--darkreader-inline-fill:#59080d;"></path><path d="M606.183 374.007c-22.131 98.762-25.231 148.142-9.3 148.142 6.546 0 10.745-5.143 19.591-5.143s15.422 5.88 26.027 3.26c13.245-3.272 16.532-14.233 22.78-19.08 8.504-6.597 9.694-4.719 15.581-7.622 5.888-2.904 9.747-16.946-6.223-27.644-30.454-20.398-53.273-51.036-68.456-91.913z" fill="#D8000F" p-id="5347" data-darkreader-inline-fill="" style="--darkreader-inline-fill:#d0424c;"></path><path d="M606.183 374.007l0.316 0.846c-14.263 88.571-13.714 132.856 1.649 132.856 6.545 0 3.258-3.361 12.103-3.361 8.846 0 13.606 5.983 24.214 3.361 13.243-3.272 13.838-13.595 20.085-18.442 8.503-6.597 10.425-3.04 16.312-5.943 1.726-0.852 3.277-2.658 4.204-5.056 2.455 7.117-0.466 13.452-4.204 15.296-5.887 2.903-7.077 1.027-15.58 7.623-6.247 4.847-9.536 15.807-22.78 19.08-10.606 2.621-17.182-3.261-26.028-3.261s-13.045 5.143-19.59 5.143c-15.932 0-12.832-49.38 9.3-148.143z" fill="#C40714" p-id="5348" data-darkreader-inline-fill="" style="--darkreader-inline-fill:#ce5159;"></path><path d="M866.011 158.274c98.762-22.133 148.143-25.232 148.143-9.3 0 6.545-5.144 10.744-5.144 19.591 0 8.846 5.88 15.421 3.26 26.027-3.272 13.245-14.233 16.53-19.08 22.78-6.597 8.503-4.718 9.694-7.622 15.58-2.904 5.887-16.946 9.748-27.644-6.222-20.398-30.454-51.036-53.273-91.913-68.456z" fill="#D8000F" p-id="5349" data-darkreader-inline-fill="" style="--darkreader-inline-fill:#d0424c;"></path><path d="M866.011 158.274c0.283 0.104 0.565 0.209 0.846 0.316 88.572-14.263 132.857-13.714 132.857 1.647 0 6.546-3.362 3.26-3.362 12.105 0 8.846 5.983 13.606 3.362 24.213-3.273 13.244-13.596 13.839-18.443 20.085-6.597 8.504-3.04 10.426-5.943 16.313-0.85 1.724-2.658 3.276-5.056 4.204 7.118 2.455 13.453-0.467 15.296-4.204 2.904-5.887 1.027-7.078 7.623-15.581 4.848-6.248 15.807-9.535 19.08-22.78 2.621-10.606-3.26-17.181-3.26-26.027 0-8.847 5.143-13.046 5.143-19.59 0-15.933-49.38-12.833-148.143 9.299z" fill="#C40714" p-id="5350" data-darkreader-inline-fill="" style="--darkreader-inline-fill:#ce5159;"></path><path d="M615.74 393.062c-61.563-80.133-76.575-214.91-49.152-263.02 27.424-48.107 195.836-44.384 283.189 11.843 87.354 56.23 143.696 169.104 135.032 329.886-8.666 160.783-106.416 309.937-232.492 368.181-6.917 25.5-6.917 92.934-85.71 113.025-16.433-37.009-3.484-63.032 22.036-99.92-52.3-13.106-69.572-47.79-86.677-73.961 54.17-8.685 77.028-2.933 104.503 13.676 27.471 16.608 139.219-89.944 108.342-209.092-30.876-119.15-137.508-110.482-199.071-190.618z" fill="#D8000F" p-id="5351" data-darkreader-inline-fill="" style="--darkreader-inline-fill:#840b14;"></path><path d="M615.74 393.062c-61.563-80.133-76.575-214.91-49.152-263.02 19.079-33.467 106.392-41.85 187.178-24.921 35.339 7.405-139.373-2.209-151.8 51.342-12.427 53.55 12.23 170.396 75.337 217.544 63.108 47.148 93.97 42.174 153.143 133.702s-9.93 261.624-103.854 305.013c-25.363 5.74-52.427-28.097-88.342-16.814 7.476 24.367 41.41 41.686 68.22 50.457-13.879 31.35-36.167 54.99-32.255 96.615 11.34 0.929 10.705 0.365 22.48-1.747-8.996 5.246-22.056 9.817-30.087 11.744-16.434-37.009-3.485-63.032 22.035-99.92-52.3-13.106-69.572-47.79-86.677-73.961 54.17-8.685 77.028-2.933 104.503 13.676 27.471 16.608 139.219-89.944 108.342-209.092-30.876-119.15-137.508-110.482-199.071-190.618z" fill="#C40714" p-id="5352" data-darkreader-inline-fill="" style="--darkreader-inline-fill:#7a1017;"></path><path d="M561.858 258.395a27.794 19.852 75 1 0 14.387 53.695 27.794 19.852 75 1 0-14.387-53.695z" fill="#FFE400" p-id="5353" data-darkreader-inline-fill="" style="--darkreader-inline-fill:#f5e455;"></path><path d="M561.857 258.395c10.591-2.838 22.398 6.881 26.371 21.708 3.973 14.828-1.393 29.148-11.982 31.986a14.41 14.41 0 0 1-2.262 0.417c8.084-4.833 11.767-17.432 8.289-30.417-3.693-13.78-14.152-23.149-24.113-22.125a14.434 14.434 0 0 1 3.697-1.57z" fill="#FFA700" p-id="5354" data-darkreader-inline-fill="" style="--darkreader-inline-fill:#e9b249;"></path><path d="M775.868 113.425a27.794 19.852 10 1 0-54.744-9.653 27.794 19.852 10 1 0 54.744 9.653z" fill="#FFE400" p-id="5355" data-darkreader-inline-fill="" style="--darkreader-inline-fill:#f5e455;"></path><path d="M775.867 113.426c-1.903 10.797-15.702 17.39-30.82 14.725-15.116-2.666-25.827-13.58-23.924-24.379a14.41 14.41 0 0 1 0.579-2.223c0.964 9.368 10.825 18.03 24.064 20.364 14.05 2.478 26.96-3.043 30.242-12.502a14.434 14.434 0 0 1-0.14 4.015z" fill="#FFA700" p-id="5356" data-darkreader-inline-fill="" style="--darkreader-inline-fill:#e9b249;"></path><path d="M745.141 825.385c94.823-72.337 151.59-184.507 151.59-306.07 0-98.32-37.042-190.87-102.546-261.519a8.777 8.777 0 1 0-12.873 11.936c62.523 67.435 97.865 155.733 97.865 249.582 0 116.03-54.17 223.064-144.684 292.114a8.777 8.777 0 0 0 10.648 13.955z" fill="#FFE400" p-id="5357" data-darkreader-inline-fill="" style="--darkreader-inline-fill:#c3b334;"></path><path d="M305.377 948.833c-7.735 8.363-21.19 12.064-34.842 9.656-14.604-2.575-26.566-11.634-30.234-23.13-26.954-7.83-51.1-18.273-70.826-30.971a261.294 261.294 0 0 1-18.644-13.19l-4.677 1.018c-43.286 9.352-76.303 14.726-99.202 16.117l-1.873 0.106-2.135 0.102c-11.24 0.474-19.986-0.102-26.444-1.853-9.373-2.54-15.428-8.156-15.428-16.77 0-3.24 0.682-6.068 1.97-9.304l0.254-0.626 0.136-0.325 1.154-2.679c1.211-2.87 1.628-4.494 1.628-6.656 0-1.685-0.338-3.373-1.258-6.487l-0.566-1.902c-2.346-8.017-2.893-12.807-1.179-19.744 2.035-8.236 6.126-13.883 12.633-19.314l0.581-0.479c1.049-0.856 4.288-3.359 4.754-3.736l0.644-0.527c0.999-0.833 1.64-1.465 2.054-1.998l0.6-0.781c2.169-2.861 2.85-4.19 3.452-6.164l0.509-1.72c0.636-2.099 1.144-3.43 2.124-5.418 3.23-6.549 11.045-10.431 19.269-9.966 8.653 0.491 16.86 5.52 23.142 14.602l1.302 1.92a150.2 150.2 0 0 0 21.033 24.508l-1.415-2.001C47.465 764.856 24.635 674.187 30.43 566.649c8.634-160.175 104.735-312.17 233.71-373.86l0.258-1.21c0.088-0.42 0.175-0.856 0.268-1.311l0.374-1.906 1.744-9.203 0.387-1.997a282.116 282.116 0 0 1 1.887-8.906c2.281-9.937 4.995-18.75 8.61-27.203 13.458-31.473 37.827-53.511 77.559-63.643l7.182-1.831 3.008 6.773c8.74 19.684 10.257 37.534 5.15 55.916-3.583 12.902-9.967 25.436-21.202 42.522 27.75 9.367 46.811 25.378 63.85 49.45l0.663 0.943c2.27 3.247 4.446 6.521 7.1 10.655l7.876 12.34 7.934 12.141-14.927 2.39c-51.446 8.087-77.307 4-108.866-15.077-1.02-0.616-3.333-0.719-6.93 0.278-4.591 1.27-10.244 4.11-16.423 8.354-13.648 9.372-28.366 24.452-40.96 42.514-30.982 44.43-44.137 97.515-30.993 148.23 8.072 31.15 21.736 54.42 41.595 73.521l1.078 1.028c14.54 13.78 29.172 23.41 58.836 40.089l13.122 7.35 2.44 1.378c7.6 4.303 14.06 8.08 19.881 11.673l1.737 1.076a148.666 148.666 0 0 0-10.363-7.817l-2.121-1.44c-9.082-6.281-14.11-14.49-14.6-23.142-0.468-8.224 3.416-16.039 9.966-19.267 2.153-1.064 3.537-1.571 5.956-2.287l1.18-0.347c1.974-0.602 3.305-1.284 6.164-3.452l0.782-0.601c0.586-0.454 1.29-1.185 2.256-2.364l0.875-1.105c0.683-0.874 1.761-2.261 2.522-3.224l0.607-0.76c5.58-6.844 11.315-11.118 19.792-13.213 6.939-1.714 11.73-1.166 19.745 1.18l2.408 0.713 0.994 0.28c2.2 0.6 3.596 0.83 4.989 0.83 2.162 0 3.785-0.415 6.656-1.628l3.003-1.289 0.624-0.254c3.238-1.289 6.065-1.97 9.307-1.97 8.634 0 14.253 6.08 16.786 15.491 1.855 6.892 2.382 16.381 1.724 28.715l-0.109 1.875-0.11 1.69c-1.541 22.48-6.743 54.266-15.604 95.489l-1.692 7.787c11.182 17.738 20.78 37.683 28.599 59.073 11.852 2.563 22.029 13.732 25.892 28.154 3.88 14.48 0.609 29.298-8.45 37.42 9.252 53.4 6.12 102.807-9.116 129.536-17.746 31.132-82.534 43.691-157.014 35.461l-2.259-0.256-0.389 0.43z m-175.894-71.03c-29.672-14.951-53.024-34.827-69.921-59.608l-1.096-1.614c-3.297-4.742-6.665-6.794-9.63-6.963-0.98-0.055-1.837 0.117-2.455 0.425l-0.18 0.098-0.07 0.043c-0.386 0.815-0.604 1.415-0.958 2.597l-0.471 1.594c-1.284 4.187-3.02 7.452-6.956 12.527-1.374 1.77-2.929 3.281-4.988 4.977l-0.863 0.694c-1.018 0.802-3.638 2.831-4.377 3.434l-0.454 0.374c-3.85 3.219-5.801 5.938-6.812 10.025-0.762 3.087-0.556 5.26 0.86 10.17l0.9 3.046c1.206 4.197 1.757 7.138 1.757 10.706 0 4.92-0.94 8.555-2.964 13.37l-0.328 0.772-0.745 1.716-0.38 0.921-0.123 0.31c-0.23 0.6-0.383 1.083-0.478 1.493 0.587 0.286 1.368 0.572 2.34 0.835 4.74 1.284 12.54 1.72 23.153 1.16l1.737-0.1 1.748-0.114c18.87-1.299 45.113-5.38 78.638-12.247l3.116-0.643z m25.725-5.547l3.28 2.628a244.044 244.044 0 0 0 20.488 14.742c19.393 12.484 43.795 22.768 71.266 30.299l6.267 1.717 0.186 6.496c0.15 5.178 6.998 11.32 16.889 13.063 9.31 1.643 17.517-1.307 19.994-5.777l3.06-5.857 6.065 0.778c71.028 9.11 133.572-2.133 147.086-25.841 13.283-23.3 15.872-71.402 6.093-123.239l-1.264-6.7 6.18-2.882c4.707-2.194 7.486-11.065 4.851-20.898-2.625-9.801-9.435-16.091-14.605-15.677l-6.763 0.54-2.229-6.406c-8.144-23.425-18.471-45.053-30.651-63.777l-2.01-3.09 0.025-0.112-4.213-5.842a214.71 214.71 0 0 0-3.9-5.243l-1.176-1.514c-17.865-22.784-37.874-37.567-75.14-58.646l-2.456-1.384-10.92-6.113-4.46-2.514c-28.66-16.227-43.619-26.243-58.903-40.74l-1.135-1.086c-22.19-21.346-37.53-47.464-46.42-81.766-14.546-56.136-0.125-114.327 33.588-162.677 29.026-41.629 67.77-68.232 87.793-56.128l1.517 0.907c24.43 14.45 44.555 18.455 82.55 13.702l1.181-0.15-0.585-0.915c-2.787-4.355-4.98-7.67-7.244-10.907l-0.584-0.83c-17.115-24.195-35.763-38.569-65.682-46.068l-12.298-3.08 7.877-11.389 1.32-1.923c13.207-19.334 20.107-32.075 23.527-44.385 3.4-12.238 3.068-23.962-1.485-37.051-29.803 9.383-47.83 26.807-58.362 51.435-3.16 7.392-5.576 15.237-7.64 24.23l-0.337 1.484a322.597 322.597 0 0 0-2.004 9.822l-1.635 8.646-0.61 3.038-0.322 1.505a93.813 93.813 0 0 1-1.102 4.558l-1.07 3.953-3.72 1.717C150.533 264.58 56.337 412.14 47.959 567.594 40.76 701.158 78.97 806.474 151.52 869.082l3.679 3.176 0.009-0.002z m260.432-238.99l0.634-3.11c6.776-33.471 10.697-59.48 11.77-77.938l0.05-0.896c0.574-10.68 0.146-18.527-1.14-23.3a14.696 14.696 0 0 0-0.717-2.106l-0.124-0.266-0.214 0.048c-0.364 0.097-0.781 0.234-1.281 0.427l-0.52 0.205-0.457 0.19-2.742 1.18c-4.816 2.024-8.45 2.963-13.37 2.963-3.57 0-6.51-0.55-10.707-1.757l-0.753-0.22-1.756-0.523c-4.93-1.448-7.188-1.766-10.058-1.164l-0.649 0.149c-4.088 1.01-6.806 2.96-10.026 6.81l-0.373 0.454c-0.603 0.74-2.632 3.36-3.433 4.379l-0.697 0.861c-1.695 2.06-3.205 3.615-4.975 4.989-5.074 3.936-8.34 5.671-12.528 6.957l-1.901 0.563-0.669 0.214a13.486 13.486 0 0 0-1.62 0.65l-0.091 0.154-0.05 0.097c-0.307 0.617-0.48 1.475-0.424 2.456 0.168 2.965 2.22 6.331 6.963 9.63l1.613 1.094c24.396 16.636 44.041 39.53 58.912 68.553l0.694 1.365 0.64-3.108z" fill="#91000A" p-id="5358" data-darkreader-inline-fill="" style="--darkreader-inline-fill:#59080d;"></path><path d="M417.817 663.324c22.131-98.76 25.231-148.142 9.3-148.142-6.546 0-10.745 5.143-19.591 5.143s-15.422-5.88-26.027-3.26c-13.245 3.273-16.532 14.233-22.78 19.08-8.504 6.597-9.694 4.72-15.581 7.622-5.888 2.904-9.747 16.948 6.223 27.644 30.454 20.398 53.273 51.036 68.456 91.913z" fill="#D8000F" p-id="5359" data-darkreader-inline-fill="" style="--darkreader-inline-fill:#d0424c;"></path><path d="M417.817 663.324l-0.316-0.846c14.263-88.571 13.714-132.856-1.649-132.856-6.545 0-3.258 3.363-12.103 3.363-8.846 0-13.606-5.983-24.214-3.363-13.243 3.273-13.838 13.595-20.085 18.442-8.503 6.597-10.425 3.041-16.312 5.943-1.726 0.852-3.277 2.658-4.204 5.058-2.455-7.119 0.466-13.453 4.204-15.298 5.887-2.902 7.077-1.025 15.58-7.623 6.247-4.846 9.536-15.806 22.78-19.078 10.606-2.622 17.182 3.26 26.028 3.26s13.045-5.144 19.59-5.144c15.932 0 12.832 49.381-9.3 148.143z" fill="#C40714" p-id="5360" data-darkreader-inline-fill="" style="--darkreader-inline-fill:#ce5159;"></path><path d="M157.989 879.059C59.227 901.19 9.846 904.29 9.846 888.358c0-6.545 5.144-10.745 5.144-19.59 0-8.848-5.88-15.422-3.26-26.03 3.272-13.242 14.233-16.53 19.08-22.777 6.597-8.504 4.718-9.695 7.622-15.583 2.904-5.886 16.946-9.747 27.644 6.225 20.398 30.452 51.036 53.271 91.913 68.456z" fill="#D8000F" p-id="5361" data-darkreader-inline-fill="" style="--darkreader-inline-fill:#d0424c;"></path><path d="M157.989 879.059l-0.846-0.316c-88.572 14.263-132.857 13.712-132.857-1.649 0-6.545 3.362-3.258 3.362-12.104 0-8.847-5.983-13.607-3.362-24.213 3.273-13.245 13.596-13.838 18.443-20.085 6.597-8.505 3.04-10.426 5.943-16.314 0.85-1.724 2.658-3.275 5.056-4.204-7.118-2.455-13.453 0.468-15.296 4.204-2.904 5.888-1.027 7.08-7.623 15.583-4.848 6.246-15.807 9.535-19.08 22.778-2.621 10.606 3.26 17.181 3.26 26.028 0 8.846-5.143 13.046-5.143 19.591 0 15.93 49.38 12.832 148.143-9.3z" fill="#C40714" p-id="5362" data-darkreader-inline-fill="" style="--darkreader-inline-fill:#ce5159;"></path><path d="M408.26 644.269c61.563 80.135 76.575 214.91 49.152 263.02-27.424 48.109-195.834 44.386-283.189-11.843C86.87 839.218 30.527 726.344 39.191 565.56c8.666-160.783 106.416-309.936 232.492-368.18 6.917-25.5 6.917-92.935 85.71-113.026 16.433 37.009 3.484 63.032-22.036 99.92 52.3 13.106 69.572 47.792 86.677 73.96-54.17 8.686-77.028 2.934-104.502-13.674-27.475-16.609-139.22 89.943-108.343 209.091 30.876 119.15 137.508 110.484 199.071 190.618z" fill="#D8000F" p-id="5363" data-darkreader-inline-fill="" style="--darkreader-inline-fill:#840b14;"></path><path d="M408.26 644.269c61.563 80.135 76.575 214.91 49.152 263.02-19.079 33.469-106.392 41.852-187.178 24.923-35.339-7.407 139.373 2.208 151.8-51.344 12.427-53.55-12.23-170.396-75.337-217.544-63.108-47.147-93.97-42.174-153.143-133.702-59.173-91.527 9.93-261.624 103.854-305.013 25.363-5.74 52.427 28.098 88.342 16.814-7.476-24.367-41.41-41.684-68.22-50.456 13.879-31.349 36.167-54.989 32.255-96.614-11.34-0.93-10.705-0.366-22.48 1.746 8.996-5.245 22.056-9.818 30.087-11.745 16.434 37.009 3.485 63.032-22.035 99.92 52.3 13.106 69.572 47.792 86.677 73.96-54.17 8.686-77.028 2.934-104.503-13.674-27.473-16.609-139.22 89.943-108.342 209.091 30.876 119.15 137.508 110.484 199.071 190.618z" fill="#C40714" p-id="5364" data-darkreader-inline-fill="" style="--darkreader-inline-fill:#7a1017;"></path><path d="M462.142 778.937a27.794 19.852 75 1 0-14.387-53.694 27.794 19.852 75 1 0 14.387 53.694z" fill="#FFE400" p-id="5365" data-darkreader-inline-fill="" style="--darkreader-inline-fill:#f5e455;"></path><path d="M462.143 778.936c-10.591 2.838-22.398-6.881-26.371-21.708-3.973-14.828 1.393-29.148 11.982-31.986a14.41 14.41 0 0 1 2.262-0.415c-8.084 4.833-11.767 17.43-8.289 30.415 3.693 13.78 14.152 23.149 24.113 22.126a14.434 14.434 0 0 1-3.697 1.568z" fill="#FFA700" p-id="5366" data-darkreader-inline-fill="" style="--darkreader-inline-fill:#e9b249;"></path><path d="M248.132 923.906a27.794 19.852 10 1 0 54.744 9.653 27.794 19.852 10 1 0-54.744-9.653z" fill="#FFE400" p-id="5367" data-darkreader-inline-fill="" style="--darkreader-inline-fill:#f5e455;"></path><path d="M248.133 923.907c1.903-10.799 15.702-17.39 30.82-14.725 15.116 2.665 25.827 13.58 23.924 24.377a14.41 14.41 0 0 1-0.579 2.225c-0.964-9.37-10.825-18.031-24.064-20.366-14.05-2.477-26.96 3.043-30.242 12.502a14.434 14.434 0 0 1 0.14-4.013z" fill="#FFA700" p-id="5368" data-darkreader-inline-fill="" style="--darkreader-inline-fill:#e9b249;"></path><path d="M278.859 211.948c-94.823 72.336-151.59 184.507-151.59 306.07 0 98.32 37.04 190.87 102.546 261.518a8.777 8.777 0 1 0 12.873-11.935c-62.524-67.435-97.865-155.733-97.865-249.583 0-116.03 54.17-223.064 144.682-292.113a8.777 8.777 0 0 0-10.646-13.956z m498.418 63.657c89.717 84.52 124.23 181.438 104.046 291.616-20.326 110.958-66.089 190.403-137.197 238.853a8.046 8.046 0 1 0 9.061 13.297c74.954-51.068 122.91-134.325 143.964-249.25 21.197-115.703-15.254-218.065-108.84-306.229a8.046 8.046 0 1 0-11.034 11.713z" fill="#FFE400" p-id="5369" data-darkreader-inline-fill="" style="--darkreader-inline-fill:#c3b334;"></path></svg>