<?xml version="1.0" standalone="no"?><!DOCTYPE svg PUBLIC "-//W3C//DTD SVG 1.1//EN" "http://www.w3.org/Graphics/SVG/1.1/DTD/svg11.dtd"><svg t="1640058062281" class="icon" viewBox="0 0 1024 1024" version="1.1" xmlns="http://www.w3.org/2000/svg" p-id="1546" data-darkreader-inline-fill="" xmlns:xlink="http://www.w3.org/1999/xlink" width="200" height="200"><defs><style type="text/css"></style></defs><path d="M405.333333 356.693333c-23.466667 0-42.666667 19.2-42.666666 42.666667v128h-128c-23.466667 0-42.666667 19.2-42.666667 42.666667s19.2 42.666667 42.666667 42.666666h128v128c0 23.466667 19.2 42.666667 42.666666 42.666667s42.666667-19.2 42.666667-42.666667v-128h128c23.466667 0 42.666667-19.2 42.666667-42.666666s-19.2-42.666667-42.666667-42.666667h-128v-128c0-23.466667-19.2-42.666667-42.666667-42.666667zM640 305.066667c0 24.32 22.186667 42.666667 46.08 37.973333l60.586667-11.946667v409.6c0 23.466667 19.2 42.666667 42.666666 42.666667s42.666667-19.2 42.666667-42.666667V282.88c0-27.733333-25.6-47.786667-52.48-41.386667l-109.653333 26.453334c-17.493333 3.84-29.866667 19.626667-29.866667 37.12z" p-id="1547"></path></svg>