<?xml version="1.0" standalone="no"?><!DOCTYPE svg PUBLIC "-//W3C//DTD SVG 1.1//EN" "http://www.w3.org/Graphics/SVG/1.1/DTD/svg11.dtd"><svg t="1748159377337" class="icon" viewBox="0 0 1200 1024" version="1.1" xmlns="http://www.w3.org/2000/svg" p-id="7051" data-darkreader-inline-fill="" xmlns:xlink="http://www.w3.org/1999/xlink" width="234.375" height="200"><path d="M1200.551724 0H0v847.448276h241.840552l125.98731 151.410758L629.618759 847.448276H1200.551724V0z m-70.62069 70.62069v706.206896H610.727724l-226.692414 131.072L274.926345 776.827586H70.62069V70.62069h1059.310344z" fill="#979797" p-id="7052" data-darkreader-inline-fill="" style="--darkreader-inline-fill: var(--darkreader-background-979797, #555a5c);"></path><path d="M317.793103 423.724138m-70.620689 0a70.62069 70.62069 0 1 0 141.241379 0 70.62069 70.62069 0 1 0-141.241379 0Z" fill="#66A1F8" p-id="7053" data-darkreader-inline-fill="" style="--darkreader-inline-fill: var(--darkreader-text-66a1f8, #78addf);"></path><path d="M600.275862 423.724138m-70.62069 0a70.62069 70.62069 0 1 0 141.24138 0 70.62069 70.62069 0 1 0-141.24138 0Z" fill="#66A1F8" p-id="7054" data-darkreader-inline-fill="" style="--darkreader-inline-fill: var(--darkreader-text-66a1f8, #78addf);"></path><path d="M882.758621 423.724138m-70.62069 0a70.62069 70.62069 0 1 0 141.241379 0 70.62069 70.62069 0 1 0-141.241379 0Z" fill="#66A1F8" p-id="7055" data-darkreader-inline-fill="" style="--darkreader-inline-fill: var(--darkreader-text-66a1f8, #78addf);"></path></svg>