<?xml version="1.0" standalone="no"?><!DOCTYPE svg PUBLIC "-//W3C//DTD SVG 1.1//EN" "http://www.w3.org/Graphics/SVG/1.1/DTD/svg11.dtd"><svg t="1683341807685" class="icon" viewBox="0 0 1024 1024" version="1.1" xmlns="http://www.w3.org/2000/svg" p-id="26043" data-darkreader-inline-fill="" xmlns:xlink="http://www.w3.org/1999/xlink" width="200" height="200"><path d="M0 0h1024v1024H0V0z m89.6 896h384v-64h-384V896zM140.8 294.4h12.8c29.866667-4.266667 51.2-29.866667 51.2-64V128H157.866667v106.666667c0 17.066667-4.266667 21.333333-17.066667 21.333333-12.8 0-21.333333-4.266667-25.6-12.8l-29.866667 25.6c12.8 21.333333 34.133333 29.866667 55.466667 25.6z m213.333333 0V256H264.533333v-25.6H341.333333v-38.4H264.533333v-25.6h89.6V128H217.6v170.666667h136.533333z m55.466667 0h46.933333v-128h51.2V128H362.666667v38.4h51.2v128z m-170.666667 162.133333c0-21.333333-12.8-38.4-34.133333-38.4 17.066667-4.266667 25.6-21.333333 25.6-38.4 0-8.533333-4.266667-21.333333-8.533333-29.866666-12.8-12.8-29.866667-17.066667-46.933334-17.066667h-85.333333v166.4h85.333333c38.4 0 64-17.066667 64-42.666667z m-106.666666-85.333333h29.866666c12.8 0 21.333333 4.266667 21.333334 12.8 0 12.8-8.533333 17.066667-21.333334 17.066667h-29.866666v-29.866667z m0 89.6v-29.866667h34.133333c17.066667 0 25.6 4.266667 21.333333 12.8 0 8.533333-8.533333 17.066667-21.333333 17.066667h-34.133333z m315.733333-128L384 482.133333l-25.6-38.4c21.333333-8.533333 34.133333-29.866667 34.133333-51.2 0-12.8-4.266667-29.866667-12.8-38.4-17.066667-17.066667-38.4-21.333333-55.466666-21.333333H243.2v166.4h46.933333v-51.2h21.333334l34.133333 51.2h76.8l12.8-29.866667h64l12.8 29.866667h51.2l-68.266667-170.666667h-46.933333z m-128 81.066667h-29.866667v-38.4h29.866667c12.8 0 25.6 4.266667 25.6 21.333333 0 8.533333-8.533333 17.066667-25.6 17.066667z m166.4 21.333333h-34.133333l17.066666-46.933333 17.066667 46.933333z m81.066667 64h46.933333V332.8h-46.933333v166.4z m170.666666-76.8l-68.266666-89.6h-42.666667v166.4h46.933333V409.6l72.533334 93.866667h38.4v-170.666667h-46.933334v89.6z m132.266667-25.6c-21.333333-4.266667-29.866667-8.533333-29.866667-17.066667 0-4.266667 4.266667-8.533333 17.066667-8.533333 17.066667 0 34.133333 8.533333 46.933333 17.066667l25.6-34.133334c-21.333333-17.066667-42.666667-21.333333-68.266666-21.333333-38.4 0-64 25.6-64 55.466667 0 34.133333 25.6 42.666667 64 51.2 21.333333 4.266667 29.866667 8.533333 29.866666 17.066666s-8.533333 12.8-21.333333 12.8c-21.333333 0-38.4-8.533333-55.466667-21.333333l-25.6 29.866667c21.333333 17.066667 51.2 25.6 76.8 25.6 42.666667 0 68.266667-21.333333 68.266667-55.466667 0-29.866667-25.6-42.666667-64-51.2z" p-id="26044" fill="#8a8a8a" data-darkreader-inline-fill="" style="--darkreader-inline-fill:#5c6264;"></path></svg>