<?xml version="1.0" standalone="no"?><!DOCTYPE svg PUBLIC "-//W3C//DTD SVG 1.1//EN" "http://www.w3.org/Graphics/SVG/1.1/DTD/svg11.dtd"><svg t="1683341488510" class="icon" viewBox="0 0 1024 1024" version="1.1" xmlns="http://www.w3.org/2000/svg" p-id="12503" data-darkreader-inline-fill="" xmlns:xlink="http://www.w3.org/1999/xlink" width="200" height="200"><path d="M258.335919 446.52818L111.807965 192.73626A511.03984 511.03984 0 0 1 512.06384 0.00032c187.423941 0 351.29589 100.735969 440.543862 251.007922H534.847833a268.159916 268.159916 0 0 0-22.751993-0.992c-121.887962 0-224.57593 83.647974-253.727921 196.543938z m437.023864-121.535962h293.471908A510.335841 510.335841 0 0 1 1024.06368 512.00016c0 280.831912-226.111929 508.799841-506.175842 511.93584l209.407935-362.687887A260.543919 260.543919 0 0 0 774.079758 512.00016a261.279918 261.279918 0 0 0-78.687975-187.007942zM326.079898 512.00016c0-102.559968 83.423974-186.015942 186.015942-186.015942s186.015942 83.423974 186.015942 186.015942c0 102.559968-83.455974 186.015942-186.015942 186.015942S326.079898 614.560128 326.079898 512.00016z m256.15992 252.447921l-146.591954 253.887921C189.119941 981.440013 0.032 768.83208 0.032 512.03216c0-91.231971 23.871993-176.831945 65.695979-251.039922L274.751914 623.040125c41.855987 89.119972 132.479959 150.975953 237.279926 150.975953 24.287992 0 47.839985-3.327999 70.175978-9.567997z" p-id="12504" fill="#8a8a8a" data-darkreader-inline-fill="" style="--darkreader-inline-fill:#5c6264;"></path></svg>