<?xml version="1.0" standalone="no"?><!DOCTYPE svg PUBLIC "-//W3C//DTD SVG 1.1//EN" "http://www.w3.org/Graphics/SVG/1.1/DTD/svg11.dtd"><svg t="1683342044678" class="icon" viewBox="0 0 1024 1024" version="1.1" xmlns="http://www.w3.org/2000/svg" p-id="42095" data-darkreader-inline-fill="" xmlns:xlink="http://www.w3.org/1999/xlink" width="200" height="200"><path d="M874.666667 469.333333H810.666667V298.666667c0-46.933333-38.4-85.333333-85.333334-85.333334h-170.666666V149.333333C554.666667 89.6 507.733333 42.666667 448 42.666667S341.333333 89.6 341.333333 149.333333V213.333333H170.666667c-46.933333 0-85.333333 38.4-85.333334 85.333334v162.133333h64c64 0 115.2 51.2 115.2 115.2S213.333333 691.2 149.333333 691.2H85.333333V853.333333c0 46.933333 38.4 85.333333 85.333334 85.333334h162.133333v-64c0-64 51.2-115.2 115.2-115.2 64 0 115.2 51.2 115.2 115.2V938.666667H725.333333c46.933333 0 85.333333-38.4 85.333334-85.333334v-170.666666h64c59.733333 0 106.666667-46.933333 106.666666-106.666667S934.4 469.333333 874.666667 469.333333z" p-id="42096" fill="#8a8a8a" data-darkreader-inline-fill="" style="--darkreader-inline-fill:#5c6264;"></path></svg>