<?xml version="1.0" standalone="no"?><!DOCTYPE svg PUBLIC "-//W3C//DTD SVG 1.1//EN" "http://www.w3.org/Graphics/SVG/1.1/DTD/svg11.dtd"><svg t="1639744030711" class="icon" viewBox="0 0 1024 1024" version="1.1" xmlns="http://www.w3.org/2000/svg" p-id="1375" data-darkreader-inline-fill="" xmlns:xlink="http://www.w3.org/1999/xlink" width="200" height="200"><defs><style type="text/css"></style></defs><path d="M686.2848 359.68c1.7408 10.0864 2.6624 20.4288 2.6624 31.0272 0 100.7616-81.7152 182.4768-182.4768 182.4768S323.9936 491.4688 323.9936 390.7072c0-13.2096 1.4336-26.0608 4.096-38.5024l-204.8-128.3072v630.3744c0 50.0224 40.5504 90.5216 90.5216 90.5216h585.3184c50.0224 0 90.5216-40.5504 90.5216-90.5216V242.432l-203.3664 117.248z" fill="#FF623E" p-id="1376" data-darkreader-inline-fill="" style="--darkreader-inline-fill:#862711;"></path><path d="M799.1808 76.5952H213.8624c-49.152 0-89.088 39.2192-90.4192 88.064l222.5152 139.3664c30.8736-57.0368 91.1872-95.744 160.5632-95.744 72.0896 0 134.4 41.7792 164.0448 102.5024l219.1872-126.3104v-17.2544c-0.0512-50.1248-40.5504-90.624-90.5728-90.624z" fill="#FF623E" p-id="1377" data-darkreader-inline-fill="" style="--darkreader-inline-fill:#862711;"></path><path d="M594.3808 431.0016h-59.8016v-17.92h59.8016c14.1312 0 25.6-11.4688 25.6-25.6s-11.4688-25.6-25.6-25.6h-35.6864l32.256-35.2256a25.53344 25.53344 0 0 0-1.5872-36.1472 25.53344 25.53344 0 0 0-36.1472 1.5872l-45.312 49.5104-42.7008-48.9984a25.6 25.6 0 0 0-36.096-2.5088 25.6 25.6 0 0 0-2.5088 36.096l31.0784 35.7376h-34.0992c-14.1312 0-25.6 11.4688-25.6 25.6s11.4688 25.6 25.6 25.6h59.8016v17.92H423.5776c-14.1312 0-25.6 11.4688-25.6 25.6s11.4688 25.6 25.6 25.6h59.8016v36.608c0 14.1312 11.4688 25.6 25.6 25.6s25.6-11.4688 25.6-25.6v-36.608h59.8016c14.1312 0 25.6-11.4688 25.6-25.6s-11.4176-25.6512-25.6-25.6512z" fill="#FF623E" p-id="1378" data-darkreader-inline-fill="" style="--darkreader-inline-fill:#862711;"></path></svg>