<?xml version="1.0" standalone="no"?><!DOCTYPE svg PUBLIC "-//W3C//DTD SVG 1.1//EN" "http://www.w3.org/Graphics/SVG/1.1/DTD/svg11.dtd"><svg t="1699696202024" class="icon" viewBox="0 0 1024 1024" version="1.1" xmlns="http://www.w3.org/2000/svg" p-id="8484" data-darkreader-inline-fill="" xmlns:xlink="http://www.w3.org/1999/xlink" width="200" height="200"><path d="M663.04 457.6H610.133333v37.973333h52.906667v-37.973333z m-100.266667 0h-50.346666v37.973333h50.346666v-37.973333z m0 77.226667h-50.346666v35.84h50.346666v-35.84z m100.266667 0H610.133333v35.84h52.906667v-35.84z m-25.6-193.28l45.653333 16.213333c-9.386667 22.186667-20.053333 41.813333-31.573333 59.306667h53.76v194.133333h-95.573333v35.413333h113.493333v44.8l-0.426667 0.426667h-113.066666l-0.426667-0.426667c-29.013333-31.146667-77.653333-33.28-109.226667-4.266666l-4.693333 4.693333h-43.52v-45.226667h110.08v-35.413333h-93.44v-194.133333h55.466667a362.24 362.24 0 0 0-34.56-57.173334l43.946666-14.933333c12.8 18.346667 24.746667 37.973333 34.133334 58.88l-29.013334 12.8h64c13.653333-23.04 24.746667-48.64 34.986667-75.093333z m-198.826667 20.48v142.08H355.413333l-6.4 62.293333h92.586667c0 79.36-2.986667 132.266667-7.253333 159.146667-5.546667 26.88-29.013333 41.386667-71.253334 44.373333-11.946667 0-23.893333-0.853333-37.12-1.706667l-12.373333-44.8c11.946667 1.28 25.173333 2.133333 37.973333 2.133334 23.04 0 36.266667-7.253333 39.253334-22.186667 3.413333-14.933333 5.12-46.506667 5.12-95.573333H299.52l12.8-144.64h78.08v-59.733334H303.786667v-40.96h134.826666v-0.426666z" fill="#333333" p-id="8485" data-darkreader-inline-fill="" style="--darkreader-inline-fill: #272a2a;"></path><path d="M775.424 212.693333a170.666667 170.666667 0 0 1 170.496 162.133334l0.170667 8.533333v106.666667a42.666667 42.666667 0 0 1-85.034667 4.949333l-0.298667-4.992V383.36a85.333333 85.333333 0 0 0-78.933333-85.077333l-6.4-0.256H246.954667a85.333333 85.333333 0 0 0-85.12 78.976l-0.213334 6.4v400.597333a85.333333 85.333333 0 0 0 78.933334 85.12l6.4 0.213333h281.770666a42.666667 42.666667 0 0 1 4.992 85.034667l-4.992 0.298667H246.954667a170.666667 170.666667 0 0 1-170.453334-162.133334l-0.213333-8.533333v-400.64a170.666667 170.666667 0 0 1 162.133333-170.453333l8.533334-0.213334h528.469333z" fill="#333333" p-id="8486" data-darkreader-inline-fill="" style="--darkreader-inline-fill: #272a2a;"></path><path d="M300.842667 97.194667a42.666667 42.666667 0 0 1 56.32-3.541334l4.010666 3.541334 128 128a42.666667 42.666667 0 0 1-56.32 63.914666l-4.010666-3.541333-128-128a42.666667 42.666667 0 0 1 0-60.373333z" fill="#333333" p-id="8487" data-darkreader-inline-fill="" style="--darkreader-inline-fill: #272a2a;"></path><path d="M702.506667 97.194667a42.666667 42.666667 0 0 0-56.32-3.541334l-4.010667 3.541334-128 128a42.666667 42.666667 0 0 0 56.32 63.914666l4.010667-3.541333 128-128a42.666667 42.666667 0 0 0 0-60.373333z" fill="#333333" p-id="8488" data-darkreader-inline-fill="" style="--darkreader-inline-fill: #272a2a;"></path><path d="M872.362667 610.773333a42.666667 42.666667 0 0 1 65.578666 54.314667l-3.413333 4.138667-230.058667 244.608a42.666667 42.666667 0 0 1-57.685333 4.096l-4.096-3.712-110.634667-114.688a42.666667 42.666667 0 0 1 57.472-62.848l3.968 3.626666 79.488 82.389334 199.381334-211.925334z" fill="#E73146" p-id="8489" data-darkreader-inline-fill="" style="--darkreader-inline-fill: #861e2a;"></path></svg>