<?xml version="1.0" standalone="no"?><!DOCTYPE svg PUBLIC "-//W3C//DTD SVG 1.1//EN" "http://www.w3.org/Graphics/SVG/1.1/DTD/svg11.dtd"><svg t="1639826936927" class="icon" viewBox="0 0 1024 1024" version="1.1" xmlns="http://www.w3.org/2000/svg" p-id="24240" data-darkreader-inline-fill="" xmlns:xlink="http://www.w3.org/1999/xlink" width="200" height="200"><defs><style type="text/css"></style></defs><path d="M342.5792 358.144a24.576 23.808 0 1 0 49.152 0 24.576 23.808 0 1 0-49.152 0Z" fill="#6893DF" p-id="24241" data-darkreader-inline-fill="" style="--darkreader-inline-fill:#7aa3cc;"></path><path d="M789.1968 124.16H244.8896c-73.0624 0-132.5056 57.5488-132.5056 128.256v526.848c0 70.7072 59.4432 128.256 132.5056 128.256h544.3072c73.0624 0 132.5056-57.5488 132.5056-128.256V252.416c-0.0512-70.7072-59.4944-128.256-132.5056-128.256zM367.1552 274.8928c47.4624 0 86.016 37.376 86.016 83.2512s-38.6048 83.2512-86.016 83.2512-86.016-37.376-86.016-83.2512 38.5536-83.2512 86.016-83.2512z m433.6128 470.2208c-5.0176 2.9696-10.5472 4.4032-16.0256 4.4032-10.3424 0-20.4288-5.0688-26.2144-14.2336l-129.1776-204.1856-122.7776 152.2688c-5.8368 7.2192-14.7456 11.4176-24.2176 11.4176h-0.3072c-9.5744-0.1024-18.5344-4.5056-24.2688-11.9296l-64.9728-84.1728-114.3808 139.52c-10.5472 12.8512-29.8496 15.0016-43.1616 4.8128-13.312-10.1888-15.5136-28.928-4.9664-41.7792l139.1616-169.7792c5.9392-7.2192 15.1552-11.52 24.5248-11.264 9.5232 0.1536 18.432 4.5568 24.1664 11.9296l64.768 83.9168 125.2864-155.392c6.1952-7.68 15.872-11.9808 25.9584-11.3664 10.0352 0.5632 19.2 5.8368 24.4736 14.1312l152.32 240.7424c8.8576 14.08 4.3008 32.3584-10.1888 40.96z" fill="#6893DF" p-id="24242" data-darkreader-inline-fill="" style="--darkreader-inline-fill:#264170;"></path></svg>